<?xml version="1.0" encoding="UTF-8" standalone="no"?>
<!DOCTYPE svg PUBLIC "-//W3C//DTD SVG 1.1//EN" "http://www.w3.org/Graphics/SVG/1.1/DTD/svg11.dtd">
<svg width="16" height="16" viewBox="0 0 168 153" version="1.1" xmlns="http://www.w3.org/2000/svg" xmlns:xlink="http://www.w3.org/1999/xlink" xml:space="preserve" xmlns:serif="http://www.serif.com/" style="fill-rule:evenodd;clip-rule:evenodd;stroke-linejoin:round;stroke-miterlimit:2;">
    <path d="M162,55.81L162,118.81L151,118.13L151,58.76C150.926,51.99 147.148,45.778 141.17,42.6L94.23,15.83C88.108,12.493 80.692,12.493 74.57,15.83L27.74,42.6C21.759,45.775 17.979,51.989 17.91,58.76L17.91,118.11L6.85,118.78L6.85,55.78C6.877,47.624 11.255,40.074 18.32,36L72.94,3.07C80.024,-1.015 88.776,-1.015 95.86,3.07L150.49,36C157.578,40.071 161.974,47.636 162,55.81Z" style="fill:#4d4d4d;fill-rule:nonzero;"/>
    <path d="M167.8,125.73L167.8,122.7L0,122.7L0,125.73L14.99,125.73L14.99,129.49L0,129.49L0,132.51L26.33,132.51L26.33,136.27L2.94,136.27L2.94,139.3L39.99,139.3L39.99,143.06L21.24,143.06L21.24,146.08L63.31,146.08L63.31,149.84L57.34,149.84L57.34,152.86L111.48,152.86L111.48,149.84L104.73,149.84L104.73,146.08L146.56,146.08L146.56,143.06L128.29,143.06L128.29,139.3L164.86,139.3L164.86,136.27L142.57,136.27L142.57,132.51L167.8,132.51L167.8,129.49L154.44,129.49L154.44,125.73L167.8,125.73Z" style="fill:#4d4d4d;fill-rule:nonzero;"/>
    <path d="M27.8,51.27L28.73,54.55L32.01,55.48L28.73,56.42L27.8,59.7L26.86,56.42L23.58,55.48L26.86,54.55L27.8,51.27Z" style="fill:#4d4d4d;fill-rule:nonzero;"/>
    <path d="M120.61,43.11L121.54,46.4L124.82,47.33L121.54,48.26L120.61,51.55L119.67,48.26L116.39,47.33L119.67,46.4L120.61,43.11Z" style="fill:#4d4d4d;fill-rule:nonzero;"/>
    <path d="M82.41,23.71L83.34,27L86.62,27.93L83.34,28.86L82.41,32.15L81.47,28.86L78.19,27.93L81.47,27L82.41,23.71Z" style="fill:#4d4d4d;fill-rule:nonzero;"/>
    <path d="M94.56,60.37L95.49,63.66L98.78,64.59L95.49,65.52L94.56,68.8L93.63,65.52L90.34,64.59L93.63,63.66L94.56,60.37Z" style="fill:#4d4d4d;fill-rule:nonzero;"/>
    <path d="M76.92,49.4L78.13,53.67L82.41,54.88L78.13,56.1L76.92,60.37L75.71,56.1L71.44,54.88L75.71,53.67L76.92,49.4Z" style="fill:#4d4d4d;fill-rule:nonzero;"/>
    <path d="M102.81,79.11L104.02,83.38L108.29,84.59L104.02,85.8L102.81,90.07L101.59,85.8L97.32,84.59L101.59,83.38L102.81,79.11Z" style="fill:#4d4d4d;fill-rule:nonzero;"/>
    <path d="M110.14,104.23C83.491,101.927 62.782,79.35 62.782,52.602C62.782,45.106 64.409,37.697 67.55,30.89C47.914,38.741 34.969,57.859 34.969,79.006C34.969,107.434 58.361,130.826 86.789,130.826C106.966,130.826 125.385,119.041 133.84,100.72C126.325,103.732 118.206,104.934 110.14,104.23Z" style="fill:#4d4d4d;fill-rule:nonzero;"/>
    <path d="M29.74,98.37L31.32,103.97L36.93,105.56L31.32,107.15L29.74,112.75L28.15,107.15L22.55,105.56L28.15,103.97L29.74,98.37Z" style="fill:#4d4d4d;fill-rule:nonzero;"/>
    <path d="M130.03,70.52L131.92,77.21L138.62,79.11L131.92,81L130.03,87.7L128.13,81L121.44,79.11L128.13,77.21L130.03,70.52Z" style="fill:#4d4d4d;fill-rule:nonzero;"/>
</svg>
